<svg width="28" height="32" viewBox="0 0 28 32" fill="none" xmlns="http://www.w3.org/2000/svg">
<path d="M12.0098 13.6311L18.7721 1" stroke="#9B51E0" stroke-width="2.5" stroke-miterlimit="10"/>
<path d="M18.6904 14.6753L25.9794 1" stroke="#9B51E0" stroke-width="2.5" stroke-miterlimit="10"/>
<path d="M12.7468 7.45365L9.29785 1" stroke="#9B51E0" stroke-width="2.5" stroke-miterlimit="10"/>
<path d="M9.2927 14.6367L2 1" stroke="#9B51E0" stroke-width="2.5" stroke-miterlimit="10"/>
<path d="M14.1496 24.2325V19.8687L12.5703 21.1129" stroke="#9B51E0" stroke-width="2.5" stroke-miterlimit="10" stroke-linecap="round" stroke-linejoin="round"/>
<path d="M14.004 30.5642C18.7081 30.5642 22.5216 26.7507 22.5216 22.0466C22.5216 17.3424 18.7081 13.5289 14.004 13.5289C9.29981 13.5289 5.48633 17.3424 5.48633 22.0466C5.48633 26.7507 9.29981 30.5642 14.004 30.5642Z" stroke="#9B51E0" stroke-width="2.5" stroke-miterlimit="10"/>
<path d="M14.0043 27.5049C17.0188 27.5049 19.4626 25.0612 19.4626 22.0466C19.4626 19.032 17.0188 16.5882 14.0043 16.5882C10.9897 16.5882 8.5459 19.032 8.5459 22.0466C8.5459 25.0612 10.9897 27.5049 14.0043 27.5049Z" stroke="#9B51E0" stroke-width="2.5" stroke-miterlimit="10"/>
</svg>
