<svg width="26" height="29" viewBox="0 0 26 29" fill="none" xmlns="http://www.w3.org/2000/svg">
<path d="M2.13281 11.2381H22.3234" stroke="#27AE60" stroke-width="2.5" stroke-miterlimit="10" stroke-linejoin="round"/>
<path d="M20.4424 4.52942H23.0433C23.8198 4.52942 24.4551 5.16518 24.4551 5.94118V25.3657C24.4551 26.1421 23.8198 26.7774 23.0433 26.7774H1.41176C0.635765 26.7774 0 26.1421 0 25.3657V5.94118C0 5.16518 0.635765 4.52942 1.41176 4.52942H5.296" stroke="#27AE60" stroke-width="2.5" stroke-miterlimit="10" stroke-linejoin="round"/>
<path d="M14.2646 4.52942H17.6472" stroke="#27AE60" stroke-width="2.5" stroke-miterlimit="10" stroke-linejoin="round"/>
<path d="M8.08887 4.52942H11.471" stroke="#27AE60" stroke-width="2.5" stroke-miterlimit="10" stroke-linejoin="round"/>
<path d="M5.39258 2V7.47765" stroke="#27AE60" stroke-width="2.5" stroke-miterlimit="10" stroke-linecap="round"/>
<path d="M17.7451 2V7.47765" stroke="#27AE60" stroke-width="2.5" stroke-miterlimit="10" stroke-linecap="round"/>
<path d="M11.5684 2V7.47765" stroke="#27AE60" stroke-width="2.5" stroke-miterlimit="10" stroke-linecap="round"/>
<path d="M8.6713 18.7158H8.2666V19.12H8.6713V18.7158Z" fill="#3A4553" stroke="#27AE60" stroke-width="2.5" stroke-miterlimit="10"/>
<path d="M4.91303 18.7158H4.50879V19.12H4.91303V18.7158Z" fill="#3A4553" stroke="#27AE60" stroke-width="2.5" stroke-miterlimit="10"/>
<path d="M12.4306 18.7158H12.0254V19.12H12.4306V18.7158Z" fill="#3A4553" stroke="#27AE60" stroke-width="2.5" stroke-miterlimit="10"/>
<path d="M16.1884 18.7158H15.7832V19.12H16.1884V18.7158Z" fill="#3A4553" stroke="#27AE60" stroke-width="2.5" stroke-miterlimit="10"/>
<path d="M19.9472 18.7158H19.542V19.12H19.9472V18.7158Z" fill="#3A4553" stroke="#27AE60" stroke-width="2.5" stroke-miterlimit="10"/>
<path d="M8.6713 14.9586H8.2666V15.3638H8.6713V14.9586Z" fill="#3A4553" stroke="#27AE60" stroke-width="2.5" stroke-miterlimit="10"/>
<path d="M12.4296 14.9586H12.0244V15.3638H12.4296V14.9586Z" fill="#3A4553" stroke="#27AE60" stroke-width="2.5" stroke-miterlimit="10"/>
<path d="M16.1884 14.9586H15.7832V15.3638H16.1884V14.9586Z" fill="#3A4553" stroke="#27AE60" stroke-width="2.5" stroke-miterlimit="10"/>
<path d="M19.9462 14.9586H19.541V15.3638H19.9462V14.9586Z" fill="#3A4553" stroke="#27AE60" stroke-width="2.5" stroke-miterlimit="10"/>
<path d="M8.6713 22.4725H8.2666V22.8776H8.6713V22.4725Z" fill="#3A4553" stroke="#27AE60" stroke-width="2.5" stroke-miterlimit="10"/>
<path d="M4.91303 22.4725H4.50879V22.8776H4.91303V22.4725Z" fill="#3A4553" stroke="#27AE60" stroke-width="2.5" stroke-miterlimit="10"/>
<path d="M12.4306 22.4725H12.0254V22.8776H12.4306V22.4725Z" fill="#3A4553" stroke="#27AE60" stroke-width="2.5" stroke-miterlimit="10"/>
<path d="M16.1884 22.4725H15.7832V22.8776H16.1884V22.4725Z" fill="#3A4553" stroke="#27AE60" stroke-width="2.5" stroke-miterlimit="10"/>
</svg>
