<svg width="101" height="100" viewBox="0 0 101 100" fill="none" xmlns="http://www.w3.org/2000/svg">
<rect x="0.529541" width="100" height="100" rx="8" fill="#2F80ED"/>
<rect x="3.52954" y="3" width="94" height="94" rx="5" stroke="black" stroke-opacity="0.25" stroke-width="6"/>
<path d="M25.3193 20.5884L29.9018 72.5579L50.5294 79.4119L71.157 72.5579L75.7395 20.5884H25.3193ZM66.4302 31.0926L65.7999 37.3032L50.6607 43.7764L50.6213 43.7895H65.2616L63.5809 63.0385L50.687 66.8069L37.7143 62.9728L36.874 53.2696H43.2947L43.7148 58.2985L50.6213 60.0448L57.8036 58.0227L58.2894 49.9345L36.4538 49.8688V49.8557L36.4275 49.8688L35.9548 43.7895L50.6739 37.6577L51.5273 37.3032H35.3902L34.6287 31.0926H66.4302Z" fill="white"/>
</svg>
