<svg width="101" height="100" viewBox="0 0 101 100" fill="none" xmlns="http://www.w3.org/2000/svg">
<rect x="0.294189" width="100" height="100" rx="8" fill="#222260"/>
<rect x="3.29419" y="3" width="94" height="94" rx="5" stroke="black" stroke-opacity="0.25" stroke-width="6"/>
<path d="M40.5574 67.5045C40.5574 67.7416 40.2846 67.9314 39.9407 67.9314C39.5493 67.967 39.2765 67.7772 39.2765 67.5045C39.2765 67.2673 39.5493 67.0775 39.8932 67.0775C40.249 67.0419 40.5574 67.2317 40.5574 67.5045ZM36.869 66.9708C36.786 67.208 37.0232 67.4807 37.379 67.5519C37.6874 67.6705 38.0431 67.5519 38.1143 67.3147C38.1855 67.0775 37.9601 66.8047 37.6043 66.698C37.296 66.615 36.9521 66.7336 36.869 66.9708ZM42.111 66.7692C41.767 66.8522 41.5299 67.0775 41.5654 67.3503C41.601 67.5875 41.9094 67.7416 42.2652 67.6586C42.6091 67.5756 42.8463 67.3503 42.8107 67.1131C42.7751 66.8878 42.4549 66.7336 42.111 66.7692ZM49.9146 21.3232C33.4653 21.3232 20.8823 33.8114 20.8823 50.2606C20.8823 63.4129 29.1603 74.6676 40.9843 78.6287C42.5023 78.9015 43.036 77.9646 43.036 77.1937C43.036 76.4584 43.0004 72.4025 43.0004 69.912C43.0004 69.912 34.6987 71.6909 32.9554 66.3778C32.9554 66.3778 31.6034 62.9267 29.6584 62.0372C29.6584 62.0372 26.9426 60.1752 29.8482 60.2108C29.8482 60.2108 32.8012 60.448 34.426 63.2706C37.0232 67.8484 41.3757 66.532 43.0716 65.7492C43.3444 63.8517 44.1152 62.5353 44.9691 61.7526C38.3396 61.0173 31.6508 60.0566 31.6508 48.6477C31.6508 45.3863 32.5522 43.7497 34.4497 41.6624C34.1413 40.8916 33.1333 37.7132 34.758 33.6098C37.2367 32.8389 42.9411 36.8119 42.9411 36.8119C45.3131 36.1477 47.8629 35.8038 50.389 35.8038C52.9151 35.8038 55.4649 36.1477 57.8368 36.8119C57.8368 36.8119 63.5412 32.827 66.0199 33.6098C67.6447 37.725 66.6366 40.8916 66.3282 41.6624C68.2258 43.7616 69.388 45.3982 69.388 48.6477C69.388 60.0922 62.4027 61.0054 55.7732 61.7526C56.8643 62.6895 57.7893 64.4684 57.7893 67.2554C57.7893 71.2521 57.7538 76.1975 57.7538 77.17C57.7538 77.9409 58.2993 78.8778 59.8055 78.605C71.6651 74.6676 79.7058 63.4129 79.7058 50.2606C79.7058 33.8114 66.3638 21.3232 49.9146 21.3232ZM32.4098 62.2269C32.2557 62.3455 32.2912 62.6183 32.4929 62.8436C32.6826 63.0334 32.9554 63.1164 33.1096 62.9622C33.2637 62.8436 33.2281 62.5709 33.0265 62.3455C32.8368 62.1558 32.564 62.0728 32.4098 62.2269ZM31.129 61.2663C31.046 61.4205 31.1646 61.6102 31.4018 61.7288C31.5915 61.8474 31.8287 61.8119 31.9117 61.6458C31.9948 61.4916 31.8762 61.3019 31.639 61.1833C31.4018 61.1121 31.212 61.1477 31.129 61.2663ZM34.9715 65.4883C34.7818 65.6425 34.8529 65.9983 35.1257 66.2236C35.3985 66.4964 35.7424 66.532 35.8966 66.3422C36.0507 66.188 35.9796 65.8323 35.7424 65.6069C35.4815 65.3342 35.1257 65.2986 34.9715 65.4883ZM33.6195 63.745C33.4298 63.8636 33.4298 64.1719 33.6195 64.4447C33.8093 64.7175 34.1295 64.836 34.2837 64.7175C34.4734 64.5633 34.4734 64.2549 34.2837 63.9822C34.1176 63.7094 33.8093 63.5908 33.6195 63.745Z" fill="#A259FF"/>
</svg>
