<svg width="36" height="28" viewBox="0 0 36 28" fill="none" xmlns="http://www.w3.org/2000/svg">
<path d="M20.3473 26.3445H24.7129V22.7059H30.0955C30.7289 22.7059 31.2471 22.1873 31.2471 21.5539V17.0395H34L31.1831 11.3233C31.1831 10.3628 32.1445 1.65506 22.1562 1.65506H18V7.86118C17.5746 7.41176 16.9722 7.12988 16.3031 7.12988C15.0108 7.12988 13.9624 8.17788 13.9624 9.47106C13.9624 10.7638 15.0113 11.8118 16.3031 11.8118C16.9727 11.8118 17.5746 11.5299 18.0009 11.0805L18.0019 15.4329C18.4287 14.9835 19.0296 14.7016 19.6988 14.7016C20.9911 14.7016 22.04 15.7501 22.0391 17.0424C22.04 18.3355 20.9911 19.3835 19.6979 19.3835C19.0296 19.3835 18.4287 19.1021 18.0019 18.6527V26.3449H11.2871V22.7059H5.904C5.27012 22.7059 4.75247 22.1873 4.75247 21.5539V17.0395H2L4.81694 11.3233C4.81694 10.3628 3.85647 1.65506 13.8442 1.65506H15.736" stroke="#394553" stroke-width="2.5" stroke-miterlimit="10" stroke-linejoin="round"/>
</svg>
