<svg width="101" height="100" viewBox="0 0 101 100" fill="none" xmlns="http://www.w3.org/2000/svg">
<rect x="0.764648" width="100" height="100" rx="8" fill="white"/>
<rect x="3.76465" y="3" width="94" height="94" rx="5" stroke="black" stroke-opacity="0.25" stroke-width="6"/>
<path d="M50.3856 34.7531C50.5005 34.8106 50.5924 34.9484 50.7303 34.9484C50.8566 34.9484 51.0519 34.9025 51.0634 34.7761C51.0864 34.6153 50.8452 34.5119 50.6958 34.443C50.5005 34.3625 50.2478 34.3281 50.064 34.4315C50.018 34.4544 49.9721 34.5119 49.995 34.5578C50.0295 34.7072 50.2593 34.6842 50.3856 34.7531V34.7531ZM47.8698 34.9484C48.0076 34.9484 48.0995 34.8106 48.2144 34.7531C48.3408 34.6842 48.5705 34.7072 48.6165 34.5693C48.6395 34.5234 48.5935 34.4659 48.5476 34.443C48.3637 34.3396 48.111 34.374 47.9157 34.4544C47.7664 34.5234 47.5251 34.6268 47.5481 34.7876C47.5596 34.9025 47.7549 34.9599 47.8698 34.9484V34.9484ZM73.2698 66.977C72.8562 66.5175 72.6609 65.6444 72.4426 64.7139C72.2358 63.7833 71.9946 62.7839 71.2364 62.1406C71.087 62.0142 70.9377 61.8993 70.7769 61.8074C70.6275 61.7155 70.4667 61.6351 70.3059 61.5776C71.3628 58.4414 70.9492 55.3167 69.8808 52.4906C68.5712 49.0327 66.285 46.0114 64.5389 43.9435C62.5744 41.4736 60.6674 39.1301 60.7019 35.6722C60.7593 30.3992 61.2878 20.5999 51.994 20.5884C40.2302 20.5654 43.1712 32.467 43.0448 36.1202C42.8495 38.8084 42.3096 40.9222 40.46 43.553C38.2888 46.1378 35.2329 50.3079 33.7855 54.6619C33.0962 56.7182 32.7745 58.809 33.0732 60.785C32.3265 61.4513 31.7636 62.4737 31.1662 63.1055C30.6837 63.5995 29.9829 63.7833 29.2132 64.0591C28.4435 64.3348 27.6049 64.7483 27.0879 65.7248C26.8467 66.1728 26.7663 66.6553 26.7663 67.1493C26.7663 67.5974 26.8352 68.0569 26.9041 68.5049C27.042 69.4354 27.1913 70.3085 26.996 70.8944C26.3987 72.5487 26.3182 73.6975 26.7433 74.5361C27.1798 75.3747 28.0529 75.7424 29.0524 75.9491C31.0398 76.3627 33.7395 76.2593 35.8648 77.3851C38.1394 78.5799 40.4485 79.005 42.2866 78.5799C43.6192 78.2812 44.7106 77.4771 45.262 76.2593C46.698 76.2478 48.2833 75.639 50.8107 75.5011C52.5224 75.3633 54.6707 76.11 57.1406 75.9721C57.2095 76.2363 57.3014 76.5006 57.4278 76.7418V76.7533C58.3813 78.6718 60.1619 79.5449 62.0575 79.3956C63.9645 79.2462 65.9749 78.1319 67.6062 76.1904C69.1685 74.3064 71.7419 73.5252 73.4536 72.4913C74.3037 71.9743 74.993 71.331 75.0504 70.3889C75.0964 69.4469 74.5449 68.4015 73.2698 66.977ZM50.7188 30.6174C51.8446 28.0671 54.6477 28.1131 55.7735 30.5715C56.5202 32.2028 56.1871 34.1213 55.2795 35.2127C55.0957 35.1207 54.6017 34.914 53.832 34.6497C53.9584 34.5119 54.1882 34.3396 54.2801 34.1213C54.8315 32.7657 54.2571 31.0195 53.2347 30.9851C52.396 30.9276 51.6378 32.2258 51.8791 33.6273C51.4081 33.3975 50.7992 33.2252 50.3856 33.1218C50.2708 32.3292 50.3512 31.4446 50.7188 30.6174V30.6174ZM46.0432 29.2963C47.2035 29.2963 48.4327 30.9276 48.2374 33.1448C47.8353 33.2597 47.4217 33.432 47.0656 33.6733C47.2035 32.6508 46.6865 31.3642 45.9628 31.4216C44.9978 31.502 44.8369 33.8571 45.756 34.6497C45.8708 34.7416 45.9742 34.6268 45.0782 35.2816C43.286 33.6043 43.8719 29.2963 46.0432 29.2963V29.2963ZM44.4808 36.2696C45.1931 35.7411 46.0432 35.1207 46.1006 35.0633C46.6405 34.5578 47.6515 33.432 49.3058 33.432C50.1214 33.432 51.0979 33.6962 52.2812 34.4544C53.0049 34.9255 53.5793 34.9599 54.8774 35.5228C55.8424 35.9249 56.4513 36.6372 56.0837 37.6136C55.785 38.4293 54.82 39.2679 53.4759 39.693C52.2007 40.1065 51.2013 41.5311 49.0875 41.4047C48.6395 41.3817 48.2833 41.2898 47.9846 41.1634C47.0656 40.7614 46.5831 39.9687 45.687 39.4402C44.6991 38.8888 44.1706 38.2455 43.9983 37.6826C43.8375 37.1197 43.9983 36.6487 44.4808 36.2696V36.2696ZM44.8599 74.6395C44.5497 78.6718 39.8167 78.5914 36.2094 76.7074C32.7745 74.8923 28.3286 75.9606 27.4211 74.1915C27.1454 73.6515 27.1454 72.7325 27.7198 71.1586V71.1357C27.9955 70.2626 27.7887 69.2976 27.6509 68.39C27.513 67.494 27.4441 66.6668 27.7542 66.0924C28.1563 65.3227 28.7307 65.047 29.4545 64.7943C30.6377 64.3692 30.8101 64.4037 31.7061 63.657C32.338 63.0022 32.7975 62.175 33.3489 61.5891C33.9348 60.9573 34.4977 60.6586 35.3823 60.7965C36.3128 60.9343 37.117 61.5776 37.8982 62.6345L40.1498 66.7243C41.2412 69.0104 45.1011 72.2845 44.8599 74.6395V74.6395ZM44.6991 71.6641C44.2281 70.9059 43.5962 70.1017 43.0448 69.4125C43.8604 69.4125 44.6761 69.1597 44.9633 68.39C45.2275 67.6778 44.9633 66.6783 44.1132 65.5295C42.5623 63.4387 39.7133 61.7959 39.7133 61.7959C38.1624 60.8309 37.2893 59.6477 36.8872 58.361C36.4851 57.0743 36.5426 55.6843 36.8528 54.3172C37.4501 51.6865 38.9895 49.1246 39.9775 47.5163C40.2417 47.321 40.0694 47.8839 38.978 49.9058C38.0016 51.7554 36.175 56.0289 38.6793 59.3719C38.7483 56.9939 39.3112 54.57 40.2647 52.3068C41.6433 49.1591 44.5497 43.7023 44.7795 39.3598C44.9059 39.4517 45.3079 39.7274 45.4917 39.8308C46.0202 40.141 46.4223 40.6005 46.9392 41.0141C48.3637 42.1629 50.2133 42.071 51.8101 41.152C52.5224 40.7499 53.0968 40.2904 53.6367 40.118C54.7741 39.7619 55.6816 39.1301 56.1986 38.3948C57.0831 41.8872 59.151 46.9304 60.4721 49.3889C61.1729 50.6985 62.5744 53.4671 63.1833 56.8101C63.5624 56.7986 63.9874 56.8561 64.4355 56.971C66.0208 52.8697 63.0914 48.4468 61.7588 47.2176C61.2188 46.6892 61.1959 46.4594 61.4601 46.4709C62.9076 47.7576 64.8146 50.3424 65.5039 53.2488C65.8255 54.5814 65.883 55.9715 65.5498 57.3501C67.4338 58.1312 69.674 59.4064 69.0766 61.3479C68.8239 61.3364 68.709 61.3479 68.5941 61.3479C68.9618 60.1876 68.1461 59.326 65.9749 58.3495C63.7232 57.3615 61.8392 57.3615 61.575 59.7855C60.1849 60.268 59.4727 61.4743 59.1165 62.9217C58.7949 64.2084 58.703 65.7593 58.6111 67.5055C58.5536 68.39 58.1975 69.5733 57.8299 70.837C54.1422 73.4677 49.0186 74.6165 44.6991 71.6641V71.6641ZM74.2692 70.343C74.1658 72.273 69.5362 72.6291 67.0088 75.6849C65.4924 77.4885 63.6313 78.488 62 78.6144C60.3687 78.7407 58.9557 78.0629 58.1286 76.3972C57.5886 75.122 57.8528 73.7434 58.2549 72.227C58.68 70.5957 59.3118 68.9185 59.3922 67.5629C59.4841 65.8167 59.5875 64.2888 59.8747 63.117C60.1734 61.9338 60.6329 61.1411 61.4486 60.6931C61.4831 60.6701 61.529 60.6586 61.5635 60.6356C61.6554 62.152 62.4021 63.6914 63.7232 64.0246C65.1707 64.4037 67.25 63.163 68.1346 62.152C69.1685 62.1176 69.9382 62.0487 70.7309 62.7379C71.8682 63.7144 71.5466 66.2188 72.6954 67.5169C73.9131 68.8496 74.3037 69.7571 74.2692 70.343ZM44.9288 37.6711C45.1586 37.8894 45.4688 38.188 45.8479 38.4867C46.6061 39.0841 47.663 39.7045 48.9841 39.7045C50.3167 39.7045 51.5689 39.0267 52.6373 38.4638C53.2002 38.1651 53.8895 37.6596 54.3375 37.269C54.7855 36.8784 55.0153 36.5453 54.6936 36.5108C54.372 36.4763 54.395 36.8095 54.0044 37.0967C53.4989 37.4643 52.89 37.9468 52.4075 38.2225C51.5574 38.705 50.1674 39.3943 48.9726 39.3943C47.7779 39.3943 46.8244 38.8429 46.1121 38.28C45.756 37.9928 45.4573 37.7056 45.2275 37.4873C45.0552 37.3264 45.0092 36.9588 44.7335 36.9244C44.5727 36.9129 44.5267 37.3494 44.9288 37.6711V37.6711Z" fill="#333333"/>
</svg>
