<svg width="36" height="30" viewBox="0 0 36 30" fill="none" xmlns="http://www.w3.org/2000/svg">
<path d="M18.0098 27.9337H8.7627" stroke="#394553" stroke-width="2.5" stroke-miterlimit="10" stroke-linecap="round" stroke-linejoin="round"/>
<path d="M22.2158 24.5129V25.5727C22.2158 26.8668 23.2746 27.9257 24.5688 27.9257H31.9457C33.2398 27.9257 34.2986 26.8668 34.2986 25.5727V4.41883C34.2986 3.12471 33.2398 2.06589 31.9457 2.06589H24.5688C23.2746 2.06589 22.2158 3.12471 22.2158 4.41883V6.14212" stroke="#394553" stroke-width="2.5" stroke-miterlimit="10" stroke-linejoin="round"/>
<path d="M25.071 10.8852C25.071 9.59107 24.0122 8.53224 22.7181 8.53224H4.05314C2.75902 8.53224 1.7002 9.59107 1.7002 10.8852V22.0367C1.7002 23.3308 2.75902 24.3897 4.05314 24.3897H22.7186C24.0127 24.3897 25.0715 23.3308 25.0715 22.0367V10.8852H25.071Z" stroke="#394553" stroke-width="2.5" stroke-miterlimit="10" stroke-linejoin="round"/>
<path d="M30.394 5.61082H26.1201" stroke="#394553" stroke-width="2.5" stroke-miterlimit="10" stroke-linecap="round" stroke-linejoin="round"/>
<path d="M28.2647 24.1783C28.4714 24.1783 28.6389 24.0108 28.6389 23.8042C28.6389 23.5976 28.4714 23.4301 28.2647 23.4301C28.0581 23.4301 27.8906 23.5976 27.8906 23.8042C27.8906 24.0108 28.0581 24.1783 28.2647 24.1783Z" fill="#394553" stroke="#394553" stroke-width="2.5" stroke-miterlimit="10"/>
</svg>
