<svg width="101" height="100" viewBox="0 0 101 100" fill="none" xmlns="http://www.w3.org/2000/svg">
<rect x="0.353027" width="100" height="100" rx="8" fill="black"/>
<rect x="3.35303" y="3" width="94" height="94" rx="5" stroke="#24FFB0" stroke-opacity="0.25" stroke-width="6"/>
<path d="M78.6864 42.7123C77.6754 38.6552 75.7584 35.5959 71.6751 35.5959H66.41V41.8194C66.41 46.6512 62.3135 50.7215 57.6393 50.7215H43.6167C39.7828 50.7215 36.6054 54.0039 36.6054 57.8509V71.2171C36.6054 75.0247 39.9141 77.2568 43.6167 78.3466C48.0545 79.6464 52.3217 79.8827 57.6393 78.3466C61.1712 77.3224 64.6506 75.2611 64.6506 71.2171V65.8732H50.6411V64.0876H71.6751C75.7584 64.0876 77.2684 61.2384 78.6864 56.9712C80.1569 52.5728 80.0913 48.345 78.6864 42.7123ZM58.519 69.4314C59.9764 69.4314 61.1581 70.6262 61.1581 72.0968C61.1581 73.5804 59.9764 74.7753 58.519 74.7753C57.0747 74.7753 55.8799 73.5673 55.8799 72.0968C55.893 70.6131 57.0747 69.4314 58.519 69.4314ZM42.9733 48.9621H56.9959C60.8955 48.9621 64.0073 45.7453 64.0073 41.8326V28.4533C64.0073 24.6457 60.8036 21.7965 56.9959 21.1531C52.2955 20.3785 47.188 20.4179 42.9733 21.1663C37.0386 22.2166 35.962 24.4093 35.962 28.4664V33.8103H49.9978V35.5959H30.6969C26.6136 35.5959 23.0423 38.0512 21.9262 42.7123C20.6395 48.0561 20.587 51.3911 21.9262 56.9712C22.9241 61.1203 25.3006 64.0876 29.384 64.0876H34.2026V57.6802C34.2026 53.0454 38.2072 48.9621 42.9733 48.9621ZM42.0936 30.239C40.6362 30.239 39.4545 29.0441 39.4545 27.5736C39.4677 26.0899 40.6362 24.8951 42.0936 24.8951C43.5379 24.8951 44.7327 26.1031 44.7327 27.5736C44.7327 29.0441 43.551 30.239 42.0936 30.239Z" fill="#FFC700"/>
</svg>
