<svg width="18" height="20" viewBox="0 0 18 20" fill="none" xmlns="http://www.w3.org/2000/svg">
<path d="M0.25 18.125C0.25 19.1602 1.08984 20 2.125 20H15.875C16.9102 20 17.75 19.1602 17.75 18.125V7.5H0.25V18.125ZM12.75 10.4688C12.75 10.2109 12.9609 10 13.2188 10H14.7812C15.0391 10 15.25 10.2109 15.25 10.4688V12.0312C15.25 12.2891 15.0391 12.5 14.7812 12.5H13.2188C12.9609 12.5 12.75 12.2891 12.75 12.0312V10.4688ZM12.75 15.4688C12.75 15.2109 12.9609 15 13.2188 15H14.7812C15.0391 15 15.25 15.2109 15.25 15.4688V17.0312C15.25 17.2891 15.0391 17.5 14.7812 17.5H13.2188C12.9609 17.5 12.75 17.2891 12.75 17.0312V15.4688ZM7.75 10.4688C7.75 10.2109 7.96094 10 8.21875 10H9.78125C10.0391 10 10.25 10.2109 10.25 10.4688V12.0312C10.25 12.2891 10.0391 12.5 9.78125 12.5H8.21875C7.96094 12.5 7.75 12.2891 7.75 12.0312V10.4688ZM7.75 15.4688C7.75 15.2109 7.96094 15 8.21875 15H9.78125C10.0391 15 10.25 15.2109 10.25 15.4688V17.0312C10.25 17.2891 10.0391 17.5 9.78125 17.5H8.21875C7.96094 17.5 7.75 17.2891 7.75 17.0312V15.4688ZM2.75 10.4688C2.75 10.2109 2.96094 10 3.21875 10H4.78125C5.03906 10 5.25 10.2109 5.25 10.4688V12.0312C5.25 12.2891 5.03906 12.5 4.78125 12.5H3.21875C2.96094 12.5 2.75 12.2891 2.75 12.0312V10.4688ZM2.75 15.4688C2.75 15.2109 2.96094 15 3.21875 15H4.78125C5.03906 15 5.25 15.2109 5.25 15.4688V17.0312C5.25 17.2891 5.03906 17.5 4.78125 17.5H3.21875C2.96094 17.5 2.75 17.2891 2.75 17.0312V15.4688ZM15.875 2.5H14V0.625C14 0.28125 13.7188 0 13.375 0H12.125C11.7812 0 11.5 0.28125 11.5 0.625V2.5H6.5V0.625C6.5 0.28125 6.21875 0 5.875 0H4.625C4.28125 0 4 0.28125 4 0.625V2.5H2.125C1.08984 2.5 0.25 3.33984 0.25 4.375V6.25H17.75V4.375C17.75 3.33984 16.9102 2.5 15.875 2.5Z" fill="#222260"/>
</svg>
