<svg width="20" height="16" viewBox="0 0 20 16" fill="none" xmlns="http://www.w3.org/2000/svg">
<path d="M19.6211 5.45312C19.7734 5.33203 20 5.44531 20 5.63672V13.625C20 14.6602 19.1602 15.5 18.125 15.5H1.875C0.839844 15.5 0 14.6602 0 13.625V5.64062C0 5.44531 0.222656 5.33594 0.378906 5.45703C1.25391 6.13672 2.41406 7 6.39844 9.89453C7.22266 10.4961 8.61328 11.7617 10 11.7539C11.3945 11.7656 12.8125 10.4727 13.6055 9.89453C17.5898 7 18.7461 6.13281 19.6211 5.45312ZM10 10.5C10.9062 10.5156 12.2109 9.35938 12.8672 8.88281C18.0508 5.12109 18.4453 4.79297 19.6406 3.85547C19.8672 3.67969 20 3.40625 20 3.11719V2.375C20 1.33984 19.1602 0.5 18.125 0.5H1.875C0.839844 0.5 0 1.33984 0 2.375V3.11719C0 3.40625 0.132812 3.67578 0.359375 3.85547C1.55469 4.78906 1.94922 5.12109 7.13281 8.88281C7.78906 9.35938 9.09375 10.5156 10 10.5Z" fill="#222260"/>
</svg>
