<svg width="20" height="20" viewBox="0 0 20 20" fill="none" xmlns="http://www.w3.org/2000/svg">
<path d="M6.68952 15.9516C6.68952 16.0323 6.59677 16.0968 6.47984 16.0968C6.34677 16.1089 6.25403 16.0444 6.25403 15.9516C6.25403 15.871 6.34677 15.8065 6.46371 15.8065C6.58468 15.7944 6.68952 15.8589 6.68952 15.9516ZM5.43548 15.7702C5.40726 15.8508 5.4879 15.9435 5.60887 15.9677C5.71371 16.0081 5.83468 15.9677 5.85887 15.8871C5.88306 15.8065 5.80645 15.7137 5.68548 15.6774C5.58065 15.6492 5.46371 15.6895 5.43548 15.7702ZM7.21774 15.7016C7.10081 15.7298 7.02016 15.8065 7.03226 15.8992C7.04435 15.9798 7.14919 16.0323 7.27016 16.004C7.3871 15.9758 7.46774 15.8992 7.45564 15.8185C7.44355 15.7419 7.33468 15.6895 7.21774 15.7016ZM9.87097 0.25C4.27823 0.25 0 4.49597 0 10.0887C0 14.5605 2.81452 18.3871 6.83468 19.7339C7.35081 19.8266 7.53226 19.5081 7.53226 19.246C7.53226 18.996 7.52016 17.6169 7.52016 16.7702C7.52016 16.7702 4.69758 17.375 4.10484 15.5685C4.10484 15.5685 3.64516 14.3952 2.98387 14.0927C2.98387 14.0927 2.06048 13.4597 3.04839 13.4718C3.04839 13.4718 4.05242 13.5524 4.60484 14.5121C5.4879 16.0686 6.96774 15.621 7.54435 15.3548C7.6371 14.7097 7.89919 14.2621 8.18952 13.996C5.93548 13.746 3.66129 13.4194 3.66129 9.54032C3.66129 8.43145 3.96774 7.875 4.6129 7.16532C4.50806 6.90323 4.16532 5.82258 4.71774 4.42742C5.56048 4.16532 7.5 5.51613 7.5 5.51613C8.30645 5.29032 9.17339 5.17339 10.0323 5.17339C10.8911 5.17339 11.7581 5.29032 12.5645 5.51613C12.5645 5.51613 14.504 4.16129 15.3468 4.42742C15.8992 5.82661 15.5565 6.90323 15.4516 7.16532C16.0968 7.87903 16.4919 8.43548 16.4919 9.54032C16.4919 13.4315 14.1169 13.7419 11.8629 13.996C12.2339 14.3145 12.5484 14.9194 12.5484 15.8669C12.5484 17.2258 12.5363 18.9073 12.5363 19.2379C12.5363 19.5 12.7218 19.8186 13.2339 19.7258C17.2661 18.3871 20 14.5605 20 10.0887C20 4.49597 15.4637 0.25 9.87097 0.25ZM3.91935 14.1573C3.86694 14.1976 3.87903 14.2903 3.94758 14.3669C4.0121 14.4315 4.10484 14.4597 4.15726 14.4073C4.20968 14.3669 4.19758 14.2742 4.12903 14.1976C4.06452 14.1331 3.97177 14.1048 3.91935 14.1573ZM3.48387 13.8306C3.45565 13.8831 3.49597 13.9476 3.57661 13.9879C3.64113 14.0282 3.72177 14.0161 3.75 13.9597C3.77823 13.9073 3.7379 13.8427 3.65726 13.8024C3.57661 13.7782 3.5121 13.7903 3.48387 13.8306ZM4.79032 15.2661C4.72581 15.3185 4.75 15.4395 4.84274 15.5161C4.93548 15.6089 5.05242 15.621 5.10484 15.5565C5.15726 15.504 5.13306 15.3831 5.05242 15.3065C4.96371 15.2137 4.84274 15.2016 4.79032 15.2661ZM4.33065 14.6734C4.26613 14.7137 4.26613 14.8185 4.33065 14.9113C4.39516 15.004 4.50403 15.0444 4.55645 15.004C4.62097 14.9516 4.62097 14.8468 4.55645 14.754C4.5 14.6613 4.39516 14.621 4.33065 14.6734Z" fill="#222260"/>
</svg>
