<svg width="20" height="15" viewBox="0 0 20 15" fill="none" xmlns="http://www.w3.org/2000/svg">
<path d="M19.5821 2.2003C19.3521 1.33421 18.6744 0.652111 17.8139 0.420629C16.2542 0 10 0 10 0C10 0 3.74586 0 2.18613 0.420629C1.32565 0.652148 0.647936 1.33421 0.417919 2.2003C0 3.77014 0 7.04545 0 7.04545C0 7.04545 0 10.3208 0.417919 11.8906C0.647936 12.7567 1.32565 13.4104 2.18613 13.6419C3.74586 14.0625 10 14.0625 10 14.0625C10 14.0625 16.2541 14.0625 17.8139 13.6419C18.6744 13.4104 19.3521 12.7567 19.5821 11.8906C20 10.3208 20 7.04545 20 7.04545C20 7.04545 20 3.77014 19.5821 2.2003V2.2003ZM7.95453 10.0192V4.07171L13.1818 7.04552L7.95453 10.0192V10.0192Z" fill="#F24E1E"/>
</svg>
